<?xml version="1.0" encoding="utf-8"?>
<!-- Generator: Adobe Illustrator 14.0.0, SVG Export Plug-In . SVG Version: 6.00 Build 43363)  -->
<!DOCTYPE svg PUBLIC "-//W3C//DTD SVG 1.1//EN" "http://www.w3.org/Graphics/SVG/1.1/DTD/svg11.dtd">
<svg version="1.1" xmlns="http://www.w3.org/2000/svg" xmlns:xlink="http://www.w3.org/1999/xlink" x="0px" y="0px"
	 width="1190.55px" height="484px" viewBox="0 141.445 1190.55 484" enable-background="new 0 141.445 1190.55 484"
	 xml:space="preserve">
<g id="Calque_1" xmlns:sodipodi="http://sodipodi.sourceforge.net/DTD/sodipodi-0.dtd" xmlns:dc="http://purl.org/dc/elements/1.1/" xmlns:rdf="http://www.w3.org/1999/02/22-rdf-syntax-ns#" xmlns:cc="http://creativecommons.org/ns#" xmlns:svg="http://www.w3.org/2000/svg" xmlns:inkscape="http://www.inkscape.org/namespaces/inkscape">
	<g transform="translate(0,-952.36218)">
		<path d="M824.941,1131.804c-75.053,0-135.896,60.842-135.896,135.896c0,2.085,0.1,4.115,0.191,6.177
			c-29.903,19.928-49.608,54.023-49.608,92.656c0,61.407,49.78,111.188,111.188,111.188H991.72v-80.302h24.708
			c0-22.119,8.021-41.592,21.813-54.628c13.793-13.037,32.707-19.497,52.313-19.497c10.162,0,20.167,1.725,29.342,5.212
			c-13.599-22.865-36.081-39.806-62.736-45.943c1.566-6.752,2.509-13.812,2.509-21.041c0-51.173-41.483-92.656-92.655-92.656
			c-14.33,0-27.845,3.458-39.958,9.266c-24.905-28.372-61.396-46.328-102.115-46.328H824.941z M1090.554,1341.824
			c-14.704,0-28.842,4.893-39.186,14.671c-10.345,9.779-16.407,24.333-16.407,40.923v18.53h-24.709v123.542h160.604v-123.542
			h-24.708v-18.53c0-16.59-6.063-31.145-16.407-40.923C1119.395,1346.717,1105.258,1341.824,1090.554,1341.824z M1090.554,1366.533
			c9.25,0,16.911,2.918,22.199,7.913c5.286,4.999,8.687,12.186,8.687,22.973v18.53h-61.771v-18.53c0-10.787,3.4-17.974,8.688-22.973
			C1073.641,1369.451,1081.304,1366.533,1090.554,1366.533z"/>
	</g>
</g>
<g id="Calque_2">
	<g transform="translate(0,-952.36218)">
		<path d="M223.537,1119.452c-84.342,0-153.064,68.23-154.234,152.303c-29.849,23.796-49.609,59.963-49.609,100.956
			c0,71.422,58.296,129.719,129.718,129.719h247.468c19.988,29.782,53.853,49.416,92.27,49.416
			c61.225,0,111.188-49.962,111.188-111.187c0-41.636-23.098-78.048-57.138-97.096c-11.796-30.995-36.393-55.713-67.369-67.755
			c0.222-2.774,0.964-5.25,0.964-8.107c0-61.188-50-111.188-111.187-111.188c-12.582,0-24.359,2.706-35.519,6.563
			C302.337,1136.346,265.04,1119.451,223.537,1119.452L223.537,1119.452z M223.537,1156.513c35.271,0,66.672,15.416,88.216,39.958
			c5.503,6.26,14.508,8.076,22.006,4.439c9.852-4.724,20.501-7.335,31.851-7.335c41.157,0,74.125,32.967,74.125,74.125
			c0,5.616-0.83,11.213-2.124,16.794c-2.284,9.967,3.935,19.9,13.897,22.199c15.591,3.589,29.467,11.751,40.151,22.971
			c-0.839,0-1.664-0.191-2.509-0.191c-61.224,0-111.187,49.963-111.187,111.187c0,8.488,1.078,16.758,2.896,24.708l-231.447-0.001
			c-51.392,0-92.656-41.264-92.656-92.656c0-32.331,16.396-60.805,41.309-77.406c5.416-3.579,8.564-9.729,8.3-16.214
			c-0.092-2.116-0.191-3.721-0.191-5.213C106.175,1208.839,158.5,1156.513,223.537,1156.513L223.537,1156.513z M489.151,1360.357
			c44.533,0,80.302,35.77,80.302,80.302s-35.77,80.302-80.302,80.302c-44.531,0-80.302-35.77-80.302-80.302
			S444.62,1360.357,489.151,1360.357z M532.005,1400.122c-4.555,0.188-8.793,2.377-11.582,5.983l-40.344,50.383l-31.271-22.393
			c-6.699-5.281-16.409-4.133-21.691,2.565c-5.281,6.697-4.132,16.409,2.565,21.69c0.378,0.297,0.769,0.577,1.173,0.839
			l43.239,30.886c6.67,4.775,15.91,3.504,21.041-2.896l49.417-61.771c5.444-6.566,4.533-16.303-2.033-21.746
			C539.573,1401.221,535.827,1399.96,532.005,1400.122L532.005,1400.122z"/>
	</g>
</g>
</svg>
