<?xml version="1.0" encoding="utf-8"?>
<!-- Generator: Adobe Illustrator 14.0.0, SVG Export Plug-In . SVG Version: 6.00 Build 43363)  -->
<!DOCTYPE svg PUBLIC "-//W3C//DTD SVG 1.1//EN" "http://www.w3.org/Graphics/SVG/1.1/DTD/svg11.dtd">
<svg version="1.1"
	 id="svg2" sodipodi:version="0.32" inkscape:version="0.46" sodipodi:docname="Official Logo.svg" inkscape:output_extension="org.inkscape.output.svg.inkscape" xmlns:sodipodi="http://sodipodi.sourceforge.net/DTD/sodipodi-0.dtd" xmlns:dc="http://purl.org/dc/elements/1.1/" xmlns:rdf="http://www.w3.org/1999/02/22-rdf-syntax-ns#" xmlns:cc="http://creativecommons.org/ns#" xmlns:svg="http://www.w3.org/2000/svg" xmlns:inkscape="http://www.inkscape.org/namespaces/inkscape"
	 xmlns="http://www.w3.org/2000/svg" xmlns:xlink="http://www.w3.org/1999/xlink" x="0px" y="0px" width="392.867px"
	 height="183.019px" viewBox="186.8 404.31 392.867 183.019" enable-background="new 186.8 404.31 392.867 183.019"
	 xml:space="preserve">
<defs>
	
	
		<inkscape:perspective  id="perspective9" inkscape:persp3d-origin="372.04724 : 350.78739 : 1" inkscape:vp_y="0 : 1000 : 0" sodipodi:type="inkscape:persp3d" inkscape:vp_x="0 : 526.18109 : 1" inkscape:vp_z="744.09448 : 526.18109 : 1">
		</inkscape:perspective>
</defs>
<sodipodi:namedview  id="base" inkscape:pageshadow="2" inkscape:window-height="713" inkscape:pageopacity="0.0" inkscape:window-width="640" inkscape:window-y="22" inkscape:window-x="0" inkscape:current-layer="g11" objecttolerance="10.0" inkscape:cy="495" guidetolerance="10.0" gridtolerance="10.0" inkscape:zoom="0.5030303" inkscape:cx="382.5" showgrid="false" bordercolor="#666666" pagecolor="#ffffff" borderopacity="1.0">
	</sodipodi:namedview>
<g id="g11" transform="matrix(1.25,0,0,-1.25,0,990)" inkscape:groupmode="layer" inkscape:label="Official Logo">
	<g id="g13">
		<g>
			<defs>
				<rect id="SVGID_1_" x="-76.5" y="-99" width="765" height="990"/>
			</defs>
			<clipPath id="SVGID_2_">
				<use xlink:href="#SVGID_1_"  overflow="visible"/>
			</clipPath>
			<g id="g15" clip-path="url(#SVGID_2_)">
				<g id="g21" transform="translate(275.0498,370.666)">
					<path id="path23" fill="#46AE33" d="M0,0c-2.13,3.634-3.21,8.231-3.21,13.663c0,5.647,1.053,10.163,3.123,13.423
						c2.051,3.226,5.084,4.858,9.016,4.858c9.046,0,13.441-5.978,13.441-18.28c0-6.034-1.166-10.78-3.462-14.105
						c-2.274-3.294-5.634-4.962-9.979-4.962C5.108-5.404,2.106-3.586,0,0 M-5.357,31.244c-3.491-4.698-5.262-10.612-5.262-17.58
						c0-7.402,1.734-13.557,5.162-18.298c3.445-4.77,8.284-7.188,14.382-7.188c6.678,0,11.882,2.288,15.47,6.801
						c3.572,4.496,5.386,10.782,5.386,18.685c0,7.715-1.808,13.816-5.374,18.147c-3.574,4.347-8.783,6.55-15.482,6.55
						C2.959,38.36-1.843,35.965-5.357,31.244"/>
				</g>
				<g id="g25" transform="translate(313.2461,405.416)">
					<path id="path27" fill="#46AE33" d="M0,0c-2.586-2.399-3.895-5.466-3.895-9.111c0-2.982,0.668-5.579,1.991-7.709
						c1.318-2.132,3.664-3.995,6.976-5.538l3.863-1.807c3.408-1.606,5.56-3.1,6.391-4.439c0.832-1.338,1.252-2.81,1.252-4.372
						c0-2.077-0.75-3.809-2.236-5.147c-1.488-1.348-3.494-2.031-5.971-2.031c-1.402,0-3.017,0.296-4.805,0.889
						c-1.785,0.586-3.293,1.328-4.484,2.207l-0.279,0.207l-2.592-6.545l0.177-0.117c3.045-2.03,6.762-3.059,11.055-3.059
						c4.891,0,8.852,1.291,11.782,3.837c2.941,2.553,4.435,5.708,4.435,9.378c0,3.354-0.68,6.159-2.025,8.345
						c-1.346,2.188-3.707,4.091-7.02,5.657l-3.934,1.868c-2.509,1.212-4.188,2.157-4.985,2.82C4.91-14.021,4.287-13.204,3.85-12.24
						c-0.444,0.969-0.666,2.057-0.666,3.239c0,1.905,0.621,3.49,1.843,4.701c1.225,1.214,2.94,1.826,5.094,1.826
						c1.496,0,3.15-0.297,4.916-0.875c1.762-0.584,3.086-1.191,3.943-1.808l0.288-0.215l2.113,6.218l-0.139,0.116
						C19.121,2.719,15.33,3.61,9.969,3.61C5.934,3.61,2.578,2.396,0,0"/>
				</g>
				<g id="g29" transform="translate(347.8613,402.0078)">
					<path id="path31" fill="#46AE33" d="M-0.001,0c-4.223-4.648-6.365-10.792-6.365-18.252c0-7.48,1.953-13.564,5.806-18.084
						c3.866-4.53,9.202-6.83,15.864-6.83c2.951,0,6.039,0.466,9.17,1.374c3.142,0.911,5.63,2.14,7.396,3.644l0.096,0.077v21.3
						H18.256v-6.084h6.633V-33.73c-2.09-1.997-4.848-3.016-8.209-3.016c-4.805,0-8.647,1.677-11.428,4.989
						c-2.791,3.322-4.203,7.777-4.203,13.24c0,5.748,1.439,10.428,4.285,13.905c2.832,3.463,6.752,5.216,11.658,5.216
						c3.086,0,6.288-1.216,9.518-3.609l0.254-0.187l2.948,5.865l-0.156,0.135C26.377,5.601,22.217,7.02,17.181,7.02
						C10.01,7.02,4.229,4.655-0.001,0"/>
				</g>
				<g id="g33" transform="translate(395.6426,387.5645)">
					<path id="path35" fill="#46AE33" d="M0,0c1.814,1.733,4.098,2.612,6.783,2.612c2.875,0,5.178-0.894,6.84-2.662
						c1.455-1.559,2.18-3.539,2.236-5.841H-2.883C-2.598-3.573-1.662-1.575,0,0 M-4.855,3.604c-3.55-3.53-5.351-8.276-5.351-14.105
						c0-5.62,1.756-10.155,5.22-13.491c3.115-3.027,6.951-4.561,11.409-4.561c3.074,0,5.898,0.472,8.408,1.406
						c2.006,0.71,3.527,1.574,4.513,2.569l0.142,0.143l-2.884,4.932l-0.239-0.215c-2.316-2.045-5.25-3.083-8.723-3.083
						c-3.039,0-5.549,0.947-7.475,2.809c-2.134,2.095-3.221,5.134-3.27,9.011H22.1l0.052,0.195c0.332,1.178,0.5,2.48,0.5,3.873
						c0,4.531-1.412,8.225-4.205,10.973C15.57,6.916,11.551,8.366,6.502,8.366C2.145,8.366-1.67,6.763-4.855,3.604"/>
				</g>
				<g id="g37" transform="translate(429.7441,377.5527)">
					<path id="path39" fill="#46AE33" d="M-0.001,0c0,3.992,0.838,7.162,2.488,9.422c1.633,2.233,3.848,3.365,6.588,3.365
						c6.084,0,9.043-4.18,9.043-12.787c0-4.015-0.814-7.22-2.428-9.526c-1.587-2.277-3.812-3.427-6.615-3.427
						C2.969-12.953-0.001-8.717-0.001,0 M-2.641,13.292C-5.586,9.927-7.08,5.458-7.08,0c0-5.627,1.432-10.174,4.258-13.504
						c2.834-3.343,6.836-5.037,11.898-5.037c4.951,0,8.918,1.677,11.798,4.985c2.87,3.303,4.323,7.861,4.323,13.556
						c0,5.714-1.42,10.253-4.224,13.487c-2.815,3.245-6.815,4.891-11.897,4.891C4.258,18.378,0.313,16.667-2.641,13.292"/>
				</g>
				<g id="g41" transform="translate(249.7598,341.2275)">
					<path id="path43" fill="#97D550" d="M0,0l-0.852-4.646h-1.666L-1.666,0l-2.295,8.265h1.739L-1.073,3.9
						c0.203-0.761,0.37-1.509,0.517-2.234h0.02c0.428,0.782,0.962,1.623,1.498,2.485l2.591,4.114h1.869L0,0"/>
				</g>
				<g id="g45" transform="translate(258.1045,344.8037)">
					<path id="path47" fill="#97D550" d="M0,0c-2.018,0-3.367-2.332-3.367-4.725c0-1.414,0.556-2.198,1.943-2.198
						c1.795,0,3.37,1.99,3.37,4.765C1.945-0.764,1.333,0,0,0 M-1.701-8.395c-2.317,0-3.37,1.204-3.37,3.384
						c0,3.787,2.331,6.466,5.331,6.466c2.426,0,3.424-1.416,3.424-3.424C3.684-5.891,1.072-8.395-1.701-8.395"/>
				</g>
				<g id="g49" transform="translate(270.208,336.582)">
					<path id="path51" fill="#97D550" d="M0-0.001h-1.627c0.129,0.63,0.371,1.72,1.016,3.746h-0.034
						c-0.873-2.009-2.313-3.938-4.239-3.938c-1.702,0-2.295,1.241-1.924,3.23l1.185,6.464h1.645l-1.126-6.08
						c-0.28-1.492-0.019-2.145,0.794-2.145c1.705,0,3.609,3.734,4.036,6.084l0.387,2.141h1.627L0-0.001"/>
				</g>
				<g id="g53" transform="translate(279.1104,344.5947)">
					<path id="path55" fill="#97D550" d="M0,0c-1.7,0.498-3.517-3.232-3.998-5.875l-0.388-2.138h-1.63l1.741,9.504h1.593
						C-2.832,0.67-3.09-0.345-3.628-2.01l0.036-0.018c1.038,2.313,2.15,3.997,3.925,3.692L0,0"/>
				</g>
				<g id="g57" transform="translate(290.6777,348.1338)">
					<path id="path59" fill="#97D550" d="M0,0c-2.959,0-5.07-3.136-5.07-6.792c0-2.083,0.997-3.383,2.904-3.383
						c2.831,0,5.145,3.002,5.145,6.827C2.979-1.302,2.019,0,0,0 M-2.405-11.746c-3.018,0-4.462,1.76-4.462,4.707
						c0,4.667,3.071,8.586,7.144,8.586c2.905,0,4.495-1.72,4.495-4.705C4.771-8.07,1.553-11.746-2.405-11.746"/>
				</g>
				<g id="g61" transform="translate(302.4453,344.8037)">
					<path id="path63" fill="#97D550" d="M0,0c-1.737,0-3.607-3.807-4.034-6.043l-0.148-0.728c0.389-0.132,0.945-0.227,1.334-0.227
						c2.703,0,3.793,2.909,3.793,5.258C0.945-0.497,0.576,0,0,0 M-3.164-8.357c-0.462,0-0.87,0.039-1.295,0.115l-0.854-4.705h-1.625
						l2.608,14.23h1.63c-0.166-0.822-0.407-1.759-1.037-3.808l0.039-0.018c0.942,2.238,2.387,4.016,4.273,4.016
						c1.33,0,2.053-0.88,2.053-2.888C2.629-4.915,0.869-8.357-3.164-8.357"/>
				</g>
				<g id="g65" transform="translate(311.1816,344.958)">
					<path id="path67" fill="#97D550" d="M0,0c-1.463,0-2.443-1.322-2.867-2.927C-0.018-2.813,1.242-2.22,1.242-1.07
						C1.242-0.381,0.74,0,0,0 M-3.072-4.188c-0.055-0.29-0.091-0.766-0.091-1.109c0-1.474,0.5-1.855,1.98-1.855
						c0.868,0,1.795,0.211,2.59,0.552v-1.378C0.518-8.34-0.555-8.549-1.758-8.549c-2.109,0-3.09,0.934-3.09,3.078
						c0,3.694,1.981,6.772,5.034,6.772c1.96,0,2.701-1.033,2.701-2.162C2.887-2.908,0.869-4.035-3.072-4.188"/>
				</g>
				<g id="g69" transform="translate(322.4336,336.582)">
					<path id="path71" fill="#97D550" d="M0-0.001h-1.627L-0.5,6.081c0.279,1.491,0.02,2.141-0.813,2.141
						c-1.703,0-3.591-3.728-4.016-6.084l-0.389-2.139h-1.629l0.927,4.973c0.24,1.355,0.572,3.136,0.811,4.53h1.613
						c-0.113-0.63-0.369-1.719-1.018-3.748h0.037c0.868,2.009,2.33,3.939,4.254,3.939c1.702,0,2.278-1.243,1.928-3.23L0-0.001"/>
				</g>
				<g id="g73" transform="translate(336.793,347.9209)">
					<path id="path75" fill="#97D550" d="M0,0c-0.609,0.229-1.273,0.308-1.738,0.308c-1.85,0-2.684-1.091-2.684-2.123
						c0-2.334,3.813-2.414,3.813-5.472c0-2.39-2.036-4.246-4.94-4.246c-0.666,0-1.445,0.078-2.055,0.268l0.315,1.685
						c0.52-0.231,1.259-0.403,1.888-0.403c1.925,0,3.016,0.977,3.016,2.41c0,2.237-3.795,2.255-3.795,5.355
						c0,2.121,1.61,3.979,4.61,3.979c0.629,0,1.183-0.037,1.886-0.19L0,0"/>
				</g>
				<g id="g77" transform="translate(342.9043,344.8037)">
					<path id="path79" fill="#97D550" d="M-0.001,0c-2.018,0-3.369-2.332-3.369-4.725c0-1.414,0.553-2.198,1.941-2.198
						c1.795,0,3.366,1.99,3.366,4.765C1.939-0.764,1.331,0-0.001,0 M-1.703-8.395c-2.316,0-3.371,1.204-3.371,3.384
						c0,3.787,2.334,6.466,5.332,6.466c2.426,0,3.423-1.416,3.423-3.424C3.681-5.891,1.072-8.395-1.703-8.395"/>
				</g>
				<g id="g81" transform="translate(355.0059,336.582)">
					<path id="path83" fill="#97D550" d="M0-0.001h-1.63c0.131,0.63,0.371,1.72,1.018,3.746h-0.034
						c-0.872-2.009-2.317-3.938-4.239-3.938c-1.705,0-2.297,1.241-1.927,3.23l1.184,6.464h1.648l-1.127-6.08
						c-0.28-1.492-0.02-2.145,0.795-2.145c1.702,0,3.61,3.734,4.034,6.084l0.386,2.141H1.74L0-0.001"/>
				</g>
				<g id="g85" transform="translate(363.8887,344.5947)">
					<path id="path87" fill="#97D550" d="M0,0c-1.702,0.498-3.516-3.232-4-5.875l-0.384-2.138h-1.633l1.741,9.504h1.591
						C-2.83,0.67-3.09-0.345-3.627-2.01l0.037-0.018c1.035,2.313,2.148,3.997,3.924,3.692L0,0"/>
				</g>
				<g id="g89" transform="translate(370.957,344.4609)">
					<path id="path91" fill="#97D550" d="M0-0.001c-0.5,0.23-1.033,0.364-1.684,0.364c-2.332,0-3.42-2.716-3.42-4.879
						c0-0.991,0.312-2.009,1.923-2.009c0.721,0,1.498,0.173,2.075,0.459l-0.114-1.509c-0.646-0.249-1.498-0.459-2.425-0.459
						c-2.385,0-3.2,1.338-3.2,3.136c0,3.634,1.981,6.675,5.274,6.675c0.759,0,1.369-0.114,1.943-0.284L0-0.001"/>
				</g>
				<g id="g93" transform="translate(376.6387,344.958)">
					<path id="path95" fill="#97D550" d="M0,0c-1.462,0-2.441-1.322-2.867-2.927C-0.02-2.813,1.24-2.22,1.24-1.07
						C1.24-0.381,0.74,0,0,0 M-3.072-4.188c-0.055-0.29-0.091-0.766-0.091-1.109c0-1.474,0.5-1.855,1.982-1.855
						c0.866,0,1.793,0.211,2.59,0.552v-1.378C0.521-8.34-0.555-8.549-1.758-8.549c-2.107,0-3.087,0.934-3.087,3.078
						c0,3.694,1.979,6.772,5.032,6.772c1.959,0,2.702-1.033,2.702-2.162C2.889-2.908,0.871-4.035-3.072-4.188"/>
				</g>
				<g id="g97" transform="translate(394.4609,347.6162)">
					<path id="path99" fill="#97D550" d="M0,0c-0.869,0.327-1.74,0.459-2.592,0.459c-3.625,0-5.088-3.672-5.088-6.924
						c0-1.854,0.741-3.156,3.147-3.156c1.035,0,2.053,0.229,2.904,0.632l-0.074-1.589c-0.996-0.38-2.164-0.609-3.328-0.609
						c-3.573,0-4.498,2.162-4.498,4.436c0,4.515,2.459,8.741,7.177,8.741c1.057,0,1.945-0.154,2.759-0.386L0,0"/>
				</g>
				<g id="g101" transform="translate(399.7363,344.8037)">
					<path id="path103" fill="#97D550" d="M0,0c-2.018,0-3.366-2.332-3.366-4.725c0-1.414,0.554-2.198,1.941-2.198
						c1.797,0,3.367,1.99,3.367,4.765C1.941-0.764,1.334,0,0,0 M-1.701-8.395c-2.315,0-3.369,1.204-3.369,3.384
						c0,3.787,2.33,6.466,5.33,6.466c2.424,0,3.424-1.416,3.424-3.424C3.684-5.891,1.076-8.395-1.701-8.395"/>
				</g>
				<g id="g105" transform="translate(417.4297,336.582)">
					<path id="path107" fill="#97D550" d="M0-0.001h-1.648l1.13,6.082C-0.24,7.573-0.5,8.243-1.26,8.243
						c-1.572,0-3.496-3.521-3.978-6.105l-0.387-2.139h-1.631l1.129,6.082c0.28,1.491,0.037,2.162-0.759,2.162
						c-1.552,0-3.478-3.521-3.959-6.105l-0.387-2.139h-1.627l0.922,4.973c0.261,1.415,0.576,3.136,0.814,4.53h1.611
						c-0.107-0.63-0.369-1.739-1.017-3.748h0.037c0.848,1.99,2.295,3.939,4.183,3.939c1.184,0,1.85-0.668,1.85-1.853
						c0-0.593-0.148-1.149-0.443-2.104l0.037-0.019c0.849,2.045,2.295,3.976,4.181,3.976c1.666,0,2.241-1.243,1.868-3.23L0-0.001"/>
				</g>
				<g id="g109" transform="translate(426.2773,344.8037)">
					<path id="path111" fill="#97D550" d="M0,0c-1.742,0-3.611-3.807-4.037-6.043l-0.149-0.728c0.389-0.132,0.946-0.227,1.332-0.227
						c2.705,0,3.797,2.909,3.797,5.258C0.943-0.497,0.572,0,0,0 M-3.167-8.357c-0.463,0-0.87,0.039-1.295,0.115l-0.853-4.705h-1.627
						l2.609,14.23h1.627C-2.869,0.461-3.113-0.477-3.74-2.525l0.035-0.018c0.947,2.238,2.388,4.016,4.277,4.016
						c1.332,0,2.053-0.88,2.053-2.888C2.625-4.915,0.869-8.357-3.167-8.357"/>
				</g>
				<g id="g113" transform="translate(435.6016,344.8799)">
					<path id="path115" fill="#97D550" d="M0,0c-2.738,0-3.811-2.924-3.811-5.277c0-1.244,0.372-1.743,0.944-1.743
						c1.738,0,3.627,3.808,4.053,6.084l0.132,0.763C0.945-0.077,0.521,0,0,0 M1.463-8.298h-1.647
						c0.168,0.82,0.518,2.084,1.075,3.862L0.852-4.42c-0.666-1.47-2.053-4.073-4.291-4.073c-1.332,0-2.057,0.883-2.057,2.888
						c0,3.502,1.758,6.963,5.775,6.963c1.055,0,2.035-0.114,2.889-0.289C2.186-4.247,1.852-6.023,1.463-8.298"/>
				</g>
				<g id="g117" transform="translate(445.4863,344.7275)">
					<path id="path119" fill="#97D550" d="M-0.001,0c-0.447,0.152-0.926,0.23-1.387,0.23c-1.205,0-1.834-0.591-1.834-1.396
						c0-1.512,2.793-1.912,2.793-4.055c0-1.588-1.349-3.096-3.959-3.096c-0.611,0-1.111,0.034-1.574,0.133l0.298,1.529
						c0.48-0.153,0.977-0.248,1.498-0.248c1.203,0,2.016,0.495,2.016,1.491c0,1.51-2.776,1.761-2.776,4.056
						c0,1.627,1.26,2.886,3.647,2.886c0.648,0,1.113-0.057,1.577-0.133L-0.001,0"/>
				</g>
				<g id="g121" transform="translate(452.4453,344.7275)">
					<path id="path123" fill="#97D550" d="M0,0c-0.447,0.152-0.926,0.23-1.391,0.23c-1.202,0-1.831-0.591-1.831-1.396
						c0-1.512,2.795-1.912,2.795-4.055c0-1.588-1.349-3.096-3.959-3.096c-0.609,0-1.113,0.034-1.574,0.133l0.297,1.529
						c0.48-0.153,0.98-0.248,1.496-0.248c1.203,0,2.022,0.495,2.022,1.491c0,1.51-2.78,1.761-2.78,4.056
						c0,1.627,1.259,2.886,3.647,2.886c0.648,0,1.109-0.057,1.572-0.133L0,0"/>
				</g>
				<g id="g125" transform="translate(216.7764,393.6641)">
					<path id="path127" fill="#46AE33" d="M0,0l17.893,5.752L1.598-3.383l9.334-6.34L0.313-6.916L6.254-25.38L-3.15-8.48
						l-5.688-9.452l2.135,10.875l-17.781-5.935l16.348,9.4l-10.282,5.85l11.716-2.43l-6.584,17.391l9.898-15.973L2.41,11.334L0,0z"
						/>
				</g>
				<g id="g129" transform="translate(213.5293,437.9531)">
					<path id="path131" fill="#46AE33" d="M0-0.001c18.144,0,33.927-10.073,42.085-24.927l3.402,0.497
						C36.944-8.01,19.79,3.215,0,3.215c-5.536,0-10.863-0.889-15.859-2.513l1.988-2.746C-9.478-0.72-4.823-0.001,0-0.001"/>
				</g>
				<g id="g133" transform="translate(235.7402,340.4502)">
					<path id="path135" fill="#97D550" d="M0,0l-28.781,33.65l-43.373-6.333l32.798,28.005l0.447,0.383l-11.248,55.417l33.51-45.9
						l43.413,6.338L-6.334,43.383L0,0z M-22.211,1.519c-18.143,0-33.932,10.07-42.091,24.923l16.735,2.444
						c5.872-7.41,14.945-12.17,25.133-12.17c1.753,0,3.471,0.146,5.148,0.417L-6.26,4.241C-11.251,2.48-16.617,1.519-22.211,1.519
						 M-47.912,90.032l3.616-17.827c-6.269-5.852-10.193-14.184-10.193-23.434c0-1.209,0.072-2.396,0.202-3.568l-13.408-11.449
						l0.117,0.1c-1.693,4.909-2.626,10.172-2.626,15.657C-70.204,66.56-61.308,81.52-47.912,90.032 M9.622,48.771
						c0,1.773-0.15,3.509-0.427,5.205l24.161,20.568l-31.705-4.63c-5.875,6.689-14.483,10.915-24.084,10.915
						c-0.995,0-1.979-0.052-2.952-0.141l-28.662,39.584l5.448-26.862c-14.905-8.966-24.88-25.297-24.88-43.961
						c0-6.293,1.139-12.316,3.214-17.886l-8.461-7.225l10.961,1.601C-59.239,9.455-42.048-1.817-22.211-1.817
						c6.434,0,12.583,1.199,18.254,3.366l6.936-8.109l-4.53,31.023C5.286,30.341,9.622,39.047,9.622,48.771"/>
				</g>
				<g id="g137" transform="translate(167.9766,366.3877)">
					<path id="path139" fill="#46AE33" d="M0,0c8.524-16.481,25.716-27.755,45.553-27.755c6.433,0,12.583,1.199,18.254,3.366
						l-2.303,2.693c-4.991-1.76-10.358-2.723-15.951-2.723c-18.144,0-33.932,10.07-42.09,24.924L0,0z M19.166,67.472
						C4.26,58.505-5.714,42.175-5.714,23.511c0-6.293,1.139-12.317,3.214-17.887l2.686,2.294C-1.508,12.825-2.44,18.089-2.44,23.573
						c0,17.049,8.896,32.009,22.292,40.522L19.166,67.472z"/>
				</g>
			</g>
		</g>
	</g>
</g>
</svg>
