<?xml version="1.0" encoding="utf-8"?>
<!-- Generator: Adobe Illustrator 14.0.0, SVG Export Plug-In . SVG Version: 6.00 Build 43363)  -->
<!DOCTYPE svg PUBLIC "-//W3C//DTD SVG 1.1//EN" "http://www.w3.org/Graphics/SVG/1.1/DTD/svg11.dtd">
<svg version="1.1" id="Calque_1" xmlns="http://www.w3.org/2000/svg" xmlns:xlink="http://www.w3.org/1999/xlink" x="0px" y="0px"
	 width="174.24px" height="185.947px" viewBox="174.33 123.307 174.24 185.947"
	 enable-background="new 174.33 123.307 174.24 185.947" xml:space="preserve">
<path d="M313.611,207.353h-4.086v-16.346c0-27.04-21.999-49.038-49.039-49.038s-49.038,21.999-49.038,49.038v16.346h-4.086
	c-6.761,0-12.26,5.499-12.26,12.26v57.211c0,6.761,5.499,12.26,12.26,12.26h106.25c6.761,0,12.259-5.499,12.259-12.26v-57.211
	C325.87,212.852,320.372,207.353,313.611,207.353z M219.621,191.007c0-22.533,18.333-40.865,40.865-40.865
	c22.533,0,40.865,18.332,40.865,40.865v16.346h-8.173v-16.346c0-18.026-14.666-32.692-32.692-32.692s-32.692,14.666-32.692,32.692
	v16.346h-8.173V191.007z M285.005,191.007v16.346h-49.038v-16.346c0-13.52,11-24.519,24.519-24.519
	C274.006,166.488,285.005,177.487,285.005,191.007z M317.698,276.823c0,2.252-1.834,4.086-4.086,4.086h-106.25
	c-2.253,0-4.087-1.834-4.087-4.086v-57.211c0-2.252,1.834-4.086,4.087-4.086h8.173h16.346h57.211h16.346h8.173
	c2.252,0,4.086,1.834,4.086,4.086V276.823z"/>
<path d="M260.486,235.958c-4.507,0-8.173,3.667-8.173,8.173c0,3.011,1.656,5.618,4.086,7.035v9.311c0,2.257,1.829,4.086,4.086,4.086
	s4.086-1.829,4.086-4.086v-9.311c2.431-1.417,4.087-4.024,4.087-7.035C268.659,239.625,264.993,235.958,260.486,235.958z"/>
</svg>
